<svg width="40" height="53" viewBox="0 0 40 53" fill="none" xmlns="http://www.w3.org/2000/svg">
<path fill-rule="evenodd" clip-rule="evenodd" d="M7.5709 1.42483C11.1217 0.782282 15.5629 0.12538 19.3933 0.0158993V0C19.5712 0 19.7508 0.00138917 19.932 0.00410507C20.1133 0.00138917 20.2929 0 20.4708 0V0.0158993C24.3012 0.12538 28.7424 0.782283 32.2932 1.42483C34.2496 1.77886 35.9581 2.13275 37.1781 2.39826C37.7884 2.53108 38.2771 2.64193 38.6143 2.71983C38.783 2.75878 38.9137 2.78951 39.003 2.81063L39.1051 2.83496L39.132 2.8414L39.1392 2.84314L39.1412 2.84363L39.1418 2.84378C39.142 2.84382 39.1422 2.84386 38.7891 4.30172L39.1422 2.84386L39.3247 5.70284L22.533 12.1219L25.6259 14.9646L25.6567 14.9929L25.6858 15.0228L30.5296 20H38.7891L39.8641 22.5461L36.4358 26.069L39.8641 29.5918L38.7891 32.1379H30.5296L25.6858 37.1151L25.6567 37.1451L25.6259 37.1734L22.533 40.016L39.3247 46.4351L39.1422 49.2941L38.7891 47.8362C39.1422 49.2941 39.142 49.2941 39.1418 49.2942L39.1412 49.2943L39.1392 49.2948L39.132 49.2965L39.1051 49.303L39.003 49.3273C38.9137 49.3484 38.783 49.3792 38.6143 49.4181C38.2771 49.496 37.7884 49.6069 37.1781 49.7397C35.9581 50.0052 34.2496 50.3591 32.2932 50.7131C28.7424 51.3556 24.3012 52.0126 20.4708 52.122V52.1379C20.2929 52.1379 20.1133 52.1365 19.9321 52.1338C19.7508 52.1365 19.5712 52.1379 19.3933 52.1379V52.122C15.5629 52.0126 11.1217 51.3556 7.5709 50.7131C5.6145 50.3591 3.90603 50.0052 2.68601 49.7397C2.07574 49.6069 1.587 49.496 1.24977 49.4181C1.08114 49.3792 0.950351 49.3484 0.861141 49.3273L0.758963 49.303L0.73213 49.2965L0.72493 49.2948L0.722903 49.2943L0.722286 49.2942C0.722087 49.2941 0.721933 49.2941 1.07498 47.8362L0.721933 49.2941L0.539365 46.4351L17.3311 40.016L14.2382 37.1734L14.2074 37.1451L14.1783 37.1151L9.33455 32.1379H1.07498L0 29.5918L3.42834 26.069L0 22.5461L1.07498 20H9.33455L14.1783 15.0228L14.2074 14.9929L14.2382 14.9646L17.3311 12.1219L0.539365 5.70284L0.721933 2.84386L1.07498 4.30172C0.721933 2.84386 0.722087 2.84382 0.722286 2.84378L0.722903 2.84363L0.72493 2.84314L0.73213 2.8414L0.758963 2.83496L0.861141 2.81063C0.950351 2.78951 1.08114 2.75878 1.24977 2.71983C1.587 2.64193 2.07574 2.53108 2.68601 2.39826C3.90603 2.13275 5.6145 1.77886 7.5709 1.42483ZM6.415 23H4.62782L5.52141 23.9182L6.415 23ZM7.61448 26.069L10.6011 23H19.3933H20.4708H29.263L32.2496 26.069L29.263 29.1379L20.4708 29.1379H10.6011L7.61448 26.069ZM5.52141 28.2197L4.62782 29.1379H6.415L5.52141 28.2197ZM13.5207 32.1379L15.6965 34.3737C16.0208 34.2802 16.4105 34.1703 16.8204 34.0601C17.3527 33.917 17.9325 33.7697 18.4537 33.6572C18.8608 33.5693 19.3329 33.4791 19.7336 33.4547V33.4483C19.7658 33.4483 19.799 33.4489 19.8328 33.45C19.8665 33.4489 19.8996 33.4483 19.9321 33.4483V33.4547C20.3318 33.4789 20.8125 33.5676 21.2318 33.6548C21.7691 33.7666 22.3718 33.913 22.9279 34.0557C23.379 34.1715 23.8078 34.287 24.1582 34.3834L26.3434 32.1379H20.4708H19.3933H13.5207ZM33.4491 29.1379H35.2363L34.3427 28.2197L33.4491 29.1379ZM34.3427 23.9182L35.2363 23H33.4491L34.3427 23.9182ZM26.3434 20H20.4708H19.3933H13.5207L15.6965 17.7642C16.0208 17.8577 16.4105 17.9677 16.8204 18.0779C17.3527 18.221 17.9325 18.3682 18.4537 18.4807C18.8608 18.5687 19.3329 18.6588 19.7336 18.6832V18.6897C19.7659 18.6897 19.799 18.6891 19.8328 18.6879C19.8665 18.6891 19.8997 18.6897 19.9321 18.6897V18.6832C20.3318 18.6591 20.8125 18.5703 21.2318 18.4831C21.7691 18.3714 22.3718 18.2249 22.9279 18.0822C23.379 17.9665 23.8078 17.851 24.1582 17.7546L26.3434 20ZM8.1051 4.37689C11.7759 3.71263 16.2535 3.064 19.9321 3.00444C23.6106 3.064 28.0882 3.71263 31.759 4.37689C32.3751 4.48837 32.9661 4.59986 33.5243 4.70848L19.9321 9.90446L6.33982 4.70848C6.89797 4.59986 7.48905 4.48837 8.1051 4.37689ZM18.2512 15.3509L19.932 13.806L21.5857 15.3258C21.2485 15.408 20.9188 15.484 20.6208 15.546C20.3842 15.5952 20.1789 15.6332 20.0125 15.6583C19.9415 15.669 19.8823 15.6766 19.8343 15.6818C19.7892 15.6768 19.7339 15.6695 19.6677 15.6592C19.5088 15.6346 19.313 15.5972 19.087 15.5483C18.8272 15.4922 18.5428 15.4244 18.2512 15.3509ZM8.1051 47.761C11.7759 48.4253 16.2535 49.0739 19.9321 49.1335C23.6106 49.0739 28.0882 48.4253 31.759 47.761C32.3751 47.6496 32.9661 47.5381 33.5243 47.4295L19.9321 42.2335L6.33982 47.4295C6.89797 47.5381 7.48905 47.6496 8.1051 47.761ZM18.2512 36.787L19.9321 38.332L21.5857 36.8121C21.2485 36.73 20.9188 36.6539 20.6208 36.5919C20.3842 36.5427 20.1789 36.5048 20.0125 36.4797C19.9415 36.4689 19.8823 36.4613 19.8343 36.4562C19.7892 36.4611 19.7339 36.4685 19.6677 36.4787C19.5088 36.5034 19.313 36.5408 19.087 36.5896C18.8272 36.6457 18.5428 36.7135 18.2512 36.787Z" fill="black"/>
</svg>
