<svg width="128" height="128" viewBox="0 0 128 128" fill="none" xmlns="http://www.w3.org/2000/svg">
<g clip-path="url(#clip0_1_3)">
<mask id="path-1-outside-1_1_3" maskUnits="userSpaceOnUse" x="5" y="-1" width="124" height="130" fill="black">
<rect fill="white" x="5" y="-1" width="124" height="130"/>
<path fill-rule="evenodd" clip-rule="evenodd" d="M12.3826 18.4018L24.0134 29.8786L35.7208 18.4768L24.0899 7L12.3826 18.4018ZM42.2249 116.392V113.392H36.1034L35.7208 53.8824L28.6046 46.9063H12V49.9067H18.1215L18.5041 109.416L25.6203 116.392H42.2249ZM100.355 84.2924V64.109L92.4738 56.3828H45.2617V59.3833H51.3832V113.392H45.2617V116.392H92.4738L92.7712 116.101L113.327 122L114.523 115.805L112.543 111.209L102.512 86.8555L114.028 89.7383L117.125 95.9618L115.834 100.005L118.866 101.034L122.568 89.4422L119.536 88.4138L118.193 92.6191L115.408 87.7893L101.905 83.3778L100.355 84.2924ZM99.1527 109.845C96.9008 104.061 94.0572 96.022 94.4006 93.1015C94.7667 89.9868 95.5446 88.1562 96.0393 87.2622C96.3014 86.7885 96.7215 86.4376 97.1876 86.1624L100.355 84.2924V108.666L99.1527 109.845ZM99.1527 109.845C100.574 113.495 101.76 116.247 101.76 116.247L94.6057 114.302L99.1527 109.845ZM94.6057 114.302L92.7712 116.101L92.5367 116.033C91.6069 114.991 90.9485 114.652 89.7145 115.205C89.3083 115.387 88.852 115.451 88.4279 115.315C87.6005 115.051 87.1439 114.166 87.4081 113.339L90.2857 104.328C90.4765 103.73 91.1157 103.4 91.7134 103.591C92.3111 103.782 92.6408 104.421 92.45 105.019L91.5043 107.98C90.4498 110.648 91.3217 111.984 94.2835 114.215L94.6057 114.302ZM68.9826 113.392V59.3833H82.7559V113.392H68.9826Z"/>
</mask>
<path d="M24.0134 29.8786L20.5015 33.4376L23.9905 36.8804L27.5019 33.4606L24.0134 29.8786ZM12.3826 18.4018L8.89409 14.8198L5.24016 18.3784L8.87068 21.9608L12.3826 18.4018ZM35.7208 18.4768L39.2093 22.0588L42.8632 18.5002L39.2327 14.9178L35.7208 18.4768ZM24.0899 7L27.6018 3.44098L24.1129 -0.00174876L20.6015 3.41803L24.0899 7ZM42.2249 113.392H47.2249V108.392H42.2249V113.392ZM42.2249 116.392V121.392H47.2249V116.392H42.2249ZM36.1034 113.392L31.1035 113.424L31.1354 118.392H36.1034V113.392ZM35.7208 53.8824L40.7207 53.8502L40.7073 51.7689L39.221 50.3119L35.7208 53.8824ZM28.6046 46.9063L32.1048 43.3358L30.6466 41.9063H28.6046V46.9063ZM12 46.9063V41.9063H7V46.9063H12ZM12 49.9067H7V54.9067H12V49.9067ZM18.1215 49.9067L23.1214 49.8746L23.0895 44.9067H18.1215V49.9067ZM18.5041 109.416L13.5042 109.448L13.5175 111.53L15.0039 112.987L18.5041 109.416ZM25.6203 116.392L22.1201 119.963L23.5783 121.392H25.6203V116.392ZM100.355 64.109H105.355V62.0087L103.855 60.5385L100.355 64.109ZM92.4738 56.3828L95.974 52.8123L94.5158 51.3828H92.4738V56.3828ZM45.2617 56.3828V51.3828H40.2617V56.3828H45.2617ZM45.2617 59.3833H40.2617V64.3833H45.2617V59.3833ZM51.3832 59.3833H56.3832V54.3833H51.3832V59.3833ZM51.3832 113.392V118.392H56.3832V113.392H51.3832ZM45.2617 113.392V108.392H40.2617V113.392H45.2617ZM45.2617 116.392H40.2617V121.392H45.2617V116.392ZM92.4738 116.392V121.392H94.5158L95.974 119.963L92.4738 116.392ZM113.327 122L111.948 126.806L117.2 128.313L118.236 122.948L113.327 122ZM114.523 115.805L119.432 116.753L119.724 115.241L119.115 113.827L114.523 115.805ZM112.543 111.209L107.92 113.114L107.935 113.151L107.951 113.188L112.543 111.209ZM102.512 86.8555L103.726 82.0051L94.1158 79.5993L97.8889 88.7597L102.512 86.8555ZM114.028 89.7383L118.504 87.5106L117.478 85.4475L115.242 84.8879L114.028 89.7383ZM117.125 95.9618L121.888 97.4828L122.506 95.5503L121.602 93.7341L117.125 95.9618ZM115.834 100.005L111.071 98.4843L109.577 103.163L114.228 104.74L115.834 100.005ZM118.866 101.034L117.26 105.769L122.081 107.404L123.629 102.555L118.866 101.034ZM122.568 89.4422L127.331 90.9632L128.825 86.2846L124.174 84.7072L122.568 89.4422ZM119.536 88.4138L121.142 83.6787L116.321 82.0438L114.773 86.8928L119.536 88.4138ZM118.193 92.6191L113.861 95.1167L119.514 104.92L122.956 94.1401L118.193 92.6191ZM115.408 87.7893L119.74 85.2918L118.782 83.6317L116.961 83.0366L115.408 87.7893ZM101.905 83.3778L103.457 78.625L101.309 77.9232L99.3629 79.0721L101.905 83.3778ZM94.4006 93.1015L99.3664 93.6853L99.3664 93.6852L94.4006 93.1015ZM96.0393 87.2622L100.414 89.6828L100.414 89.6828L96.0393 87.2622ZM97.1876 86.1624L99.7294 90.4681L99.7294 90.4681L97.1876 86.1624ZM100.355 108.666L103.855 112.237L105.355 110.766V108.666H100.355ZM101.76 116.247L100.448 121.072L110.454 123.793L106.352 114.269L101.76 116.247ZM92.5367 116.033L88.8062 119.363L89.7684 120.441L91.1575 120.839L92.5367 116.033ZM89.7145 115.205L87.6694 110.642L87.6694 110.642L89.7145 115.205ZM88.4279 115.315L89.9489 110.552L89.9489 110.552L88.4279 115.315ZM87.4081 113.339L82.6451 111.818L82.6451 111.818L87.4081 113.339ZM90.2857 104.328L85.5226 102.807L85.5226 102.807L90.2857 104.328ZM91.7134 103.591L90.1924 108.354L90.1924 108.354L91.7134 103.591ZM92.45 105.019L97.213 106.54L97.213 106.54L92.45 105.019ZM91.5043 107.98L96.1542 109.818L96.2161 109.662L96.2674 109.501L91.5043 107.98ZM94.2835 114.215L91.2756 118.209L92.0437 118.787L92.9717 119.04L94.2835 114.215ZM68.9826 59.3833V54.3833H63.9826V59.3833H68.9826ZM68.9826 113.392H63.9826V118.392H68.9826V113.392ZM82.7559 59.3833H87.7559V54.3833H82.7559V59.3833ZM82.7559 113.392V118.392H87.7559V113.392H82.7559ZM27.5253 26.3196L15.8945 14.8428L8.87068 21.9608L20.5015 33.4376L27.5253 26.3196ZM32.2323 14.8948L20.5249 26.2966L27.5019 33.4606L39.2093 22.0588L32.2323 14.8948ZM20.5781 10.559L32.2089 22.0358L39.2327 14.9178L27.6018 3.44098L20.5781 10.559ZM15.871 21.9838L27.5784 10.582L20.6015 3.41803L8.89409 14.8198L15.871 21.9838ZM37.2249 113.392V116.392H47.2249V113.392H37.2249ZM36.1034 118.392H42.2249V108.392H36.1034V118.392ZM30.7209 53.9145L31.1035 113.424L41.1033 113.36L40.7207 53.8502L30.7209 53.9145ZM25.1044 50.4768L32.2206 57.4529L39.221 50.3119L32.1048 43.3358L25.1044 50.4768ZM12 51.9063H28.6046V41.9063H12V51.9063ZM17 49.9067V46.9063H7V49.9067H17ZM18.1215 44.9067H12V54.9067H18.1215V44.9067ZM23.504 109.384L23.1214 49.8746L13.1216 49.9389L13.5042 109.448L23.504 109.384ZM29.1205 112.822L22.0043 105.846L15.0039 112.987L22.1201 119.963L29.1205 112.822ZM42.2249 111.392H25.6203V121.392H42.2249V111.392ZM95.3553 64.109V84.2924H105.355V64.109H95.3553ZM88.9736 59.9533L96.8551 67.6795L103.855 60.5385L95.974 52.8123L88.9736 59.9533ZM45.2617 61.3828H92.4738V51.3828H45.2617V61.3828ZM50.2617 59.3833V56.3828H40.2617V59.3833H50.2617ZM51.3832 54.3833H45.2617V64.3833H51.3832V54.3833ZM56.3832 113.392V59.3833H46.3832V113.392H56.3832ZM45.2617 118.392H51.3832V108.392H45.2617V118.392ZM50.2617 116.392V113.392H40.2617V116.392H50.2617ZM92.4738 111.392H45.2617V121.392H92.4738V111.392ZM89.2711 112.53L88.9736 112.822L95.974 119.963L96.2714 119.671L89.2711 112.53ZM91.3919 120.907L111.948 126.806L114.706 117.194L94.1505 111.295L91.3919 120.907ZM118.236 122.948L119.432 116.753L109.614 114.857L108.418 121.052L118.236 122.948ZM119.115 113.827L117.135 109.231L107.951 113.188L109.931 117.783L119.115 113.827ZM117.166 109.305L107.135 84.9512L97.8889 88.7597L107.92 113.114L117.166 109.305ZM101.298 91.7058L112.814 94.5886L115.242 84.8879L103.726 82.0051L101.298 91.7058ZM109.552 91.966L112.649 98.1895L121.602 93.7341L118.504 87.5106L109.552 91.966ZM112.362 94.4408L111.071 98.4843L120.597 101.526L121.888 97.4828L112.362 94.4408ZM114.228 104.74L117.26 105.769L120.472 96.2987L117.44 95.2703L114.228 104.74ZM123.629 102.555L127.331 90.9632L117.805 87.9212L114.103 99.5128L123.629 102.555ZM124.174 84.7072L121.142 83.6787L117.93 93.1489L120.962 94.1773L124.174 84.7072ZM114.773 86.8928L113.43 91.0981L122.956 94.1401L124.299 89.9348L114.773 86.8928ZM122.524 90.1216L119.74 85.2918L111.076 90.2869L113.861 95.1167L122.524 90.1216ZM116.961 83.0366L103.457 78.625L100.352 88.1306L113.855 92.5421L116.961 83.0366ZM99.3629 79.0721L97.8135 79.9867L102.897 88.5982L104.446 87.6835L99.3629 79.0721ZM89.4347 92.5177C89.2513 94.078 89.5088 95.7811 89.7806 97.1265C90.0788 98.6029 90.523 100.234 91.0229 101.865C92.025 105.134 93.3495 108.721 94.4934 111.659L103.812 108.031C102.704 105.185 101.481 101.86 100.584 98.9342C100.134 97.4674 99.7913 96.1794 99.5825 95.1463C99.3474 93.9822 99.3781 93.5853 99.3664 93.6853L89.4347 92.5177ZM91.6643 84.8415C90.836 86.3386 89.8719 88.799 89.4347 92.5177L99.3664 93.6852C99.6615 91.1746 100.253 89.9739 100.414 89.6828L91.6643 84.8415ZM94.6459 81.8566C93.7567 82.3815 92.5181 83.2984 91.6643 84.8415L100.414 89.6828C100.248 89.984 100.062 90.1883 99.9321 90.3084C99.8678 90.3678 99.8154 90.4084 99.782 90.4326C99.7487 90.4568 99.7294 90.4681 99.7294 90.4681L94.6459 81.8566ZM97.8135 79.9867L94.6458 81.8567L99.7294 90.4681L102.897 88.5982L97.8135 79.9867ZM95.3553 84.2924V108.666H105.355V84.2924H95.3553ZM96.8551 105.096L95.6525 106.274L102.653 113.415L103.855 112.237L96.8551 105.096ZM94.4934 111.659C95.2199 113.525 95.8855 115.159 96.3698 116.329C96.6122 116.914 96.8098 117.384 96.9477 117.709C97.0166 117.872 97.0706 117.999 97.1079 118.086C97.1265 118.13 97.141 118.164 97.151 118.187C97.156 118.199 97.1599 118.208 97.1627 118.214C97.1641 118.217 97.1652 118.22 97.166 118.222C97.1664 118.223 97.1667 118.224 97.167 118.224C97.1671 118.225 97.1672 118.225 97.1673 118.225C97.1674 118.225 97.1674 118.225 97.1675 118.225C97.1675 118.225 97.1676 118.226 101.76 116.247C106.352 114.269 106.352 114.269 106.352 114.269C106.352 114.269 106.352 114.269 106.352 114.269C106.352 114.269 106.352 114.269 106.352 114.269C106.352 114.269 106.352 114.269 106.351 114.269C106.351 114.268 106.35 114.267 106.35 114.264C106.348 114.26 106.345 114.253 106.341 114.244C106.333 114.225 106.32 114.196 106.304 114.158C106.271 114.08 106.221 113.963 106.157 113.811C106.028 113.507 105.84 113.061 105.608 112.501C105.145 111.382 104.507 109.815 103.812 108.031L94.4934 111.659ZM103.071 111.422L95.9175 109.477L93.294 119.127L100.448 121.072L103.071 111.422ZM95.6525 106.274L91.1055 110.732L98.1059 117.873L102.653 113.415L95.6525 106.274ZM91.1055 110.732L89.2711 112.53L96.2714 119.671L98.1059 117.873L91.1055 110.732ZM91.1575 120.839L91.392 120.907L94.1505 111.295L93.916 111.227L91.1575 120.839ZM91.7595 119.767C91.7535 119.77 91.6967 119.795 91.596 119.826C91.4938 119.857 91.3372 119.895 91.1345 119.919C90.6895 119.972 90.169 119.936 89.6484 119.761C89.1639 119.598 88.8602 119.376 88.7498 119.288C88.6543 119.211 88.6606 119.199 88.8062 119.363L96.2672 112.704C95.723 112.094 94.5886 110.871 92.8309 110.281C90.7759 109.591 88.9402 110.072 87.6694 110.642L91.7595 119.767ZM86.9069 120.078C88.7844 120.678 90.5314 120.318 91.7595 119.767L87.6694 110.642C88.0852 110.456 88.9195 110.224 89.9489 110.552L86.9069 120.078ZM82.6451 111.818C81.5408 115.276 83.449 118.974 86.9069 120.078L89.9489 110.552C91.752 111.128 92.747 113.057 92.1712 114.86L82.6451 111.818ZM85.5226 102.807L82.6451 111.818L92.1712 114.86L95.0487 105.849L85.5226 102.807ZM93.2344 98.828C90.0061 97.7971 86.5535 99.5785 85.5226 102.807L95.0487 105.849C94.3995 107.882 92.2253 109.003 90.1924 108.354L93.2344 98.828ZM97.213 106.54C98.2439 103.312 96.4626 99.8589 93.2344 98.828L90.1924 108.354C88.1595 107.705 87.0378 105.531 87.6869 103.498L97.213 106.54ZM96.2674 109.501L97.213 106.54L87.687 103.498L86.7413 106.459L96.2674 109.501ZM97.2914 110.221C96.6241 109.718 96.2251 109.377 95.9828 109.135C95.7443 108.897 95.7949 108.889 95.8914 109.089C95.9441 109.199 95.9981 109.344 96.034 109.516C96.0699 109.689 96.078 109.84 96.0736 109.955C96.0657 110.165 96.0201 110.157 96.1542 109.818L86.8545 106.142C86.0294 108.229 85.6065 110.784 86.8842 113.433C87.9216 115.584 89.8121 117.107 91.2756 118.209L97.2914 110.221ZM95.9175 109.477L95.5953 109.39L92.9717 119.04L93.2939 119.127L95.9175 109.477ZM63.9826 59.3833V113.392H73.9826V59.3833H63.9826ZM82.7559 54.3833H68.9826V64.3833H82.7559V54.3833ZM87.7559 113.392V59.3833H77.7559V113.392H87.7559ZM68.9826 118.392H82.7559V108.392H68.9826V118.392Z" fill="white" mask="url(#path-1-outside-1_1_3)"/>
</g>
<defs>
<clipPath id="clip0_1_3">
<rect width="128" height="128" fill="white"/>
</clipPath>
</defs>
</svg>
